PathFileType	4	(X/Y/Z)	./resultDataOpenSim/trcMotMarkerGrf/sub06/qtm-05-01.trc
DataRate	CameraRate	NumFrames	NumMarkers	Units	OrigDataRate	OrigDataStartFrame	OrigNumFrames
250.000000	250.000000	10	24	m	250.000000	1	531
Frame#	Time	L.Toe.Tip			R.Toe.Tip			L.Ankle.Lat			R.Ankle.Lat			L.Ankle.Med			R.Ankle.Med			L.Heel			R.Heel			L.Knee.Lat			R.Knee.Lat			L.Knee.Med			R.Knee.Med			L.Thigh.Upper			R.Thigh.Upper			L.ASIS			R.ASIS			V.Sacral			L.Acromium			R.Acromium			C7			L.Elbow			R.Elbow			L.Wrist.Lat			R.Wrist.Lat
		X1	Y1	Z1	X2	Y2	Z2	X3	Y3	Z3	X4	Y4	Z4	X5	Y5	Z5	X6	Y6	Z6	X7	Y7	Z7	X8	Y8	Z8	X9	Y9	Z9	X10	Y10	Z10	X11	Y11	Z11	X12	Y12	Z12	X13	Y13	Z13	X14	Y14	Z14	X15	Y15	Z15	X16	Y16	Z16	X17	Y17	Z17	X18	Y18	Z18	X19	Y19	Z19	X20	Y20	Z20	X21	Y21	Z21	X22	Y22	Z22	X23	Y23	Z23	X24	Y24	Z24

1	0	-1.569894	0.032410753	-0.074159044	-0.90655329	0.1246629	0.13522419	-1.6850945	0.083639373	-0.092258895	-1.0334574	0.084510582	0.13886748	-1.6746341	0.096484338	-0.0083089681	-1.0205816	0.118358	0.0569503	NaN	NaN	NaN	-1.0625609	0.040301536	0.064464345	-1.498906	0.40832347	-0.1062426	-1.1818817	0.44392105	0.15108913	-1.5119145	0.40949214	0.013729359	-1.1873801	0.42498874	0.018081823	-1.3912208	0.78005587	-0.163207	-1.3662518	0.76801354	0.18378534	-1.303962	0.81750042	-0.12647284	-1.2789898	0.82170244	0.12101226	-1.4676346	0.90132242	0.025304856	-1.3143175	1.3041743	-0.17713189	-1.3423247	1.2906192	0.18527747	-1.4008985	1.3411312	-0.00060067217	-1.2909054	0.98462732	-0.25409416	-1.4666758	0.99503474	0.22971779	-1.081218	0.85684449	-0.21394568	-1.3632022	0.78117391	0.26920054
2	0.004	-1.5701334	0.032431162	-0.074082031	-0.89867258	0.12419265	0.1342844	-1.6841541	0.084695725	-0.092595521	-1.0254697	0.083987593	0.1380903	-1.6734818	0.097622612	-0.0087302922	-1.0130235	0.11803705	0.056044905	NaN	NaN	NaN	-1.0547233	0.039755193	0.063606896	-1.4945467	0.40759	-0.10639234	-1.1749249	0.4432059	0.15086377	-1.5068826	0.40874531	0.013584391	-1.1805825	0.42437357	0.017936373	-1.3856878	0.77881269	-0.16275757	-1.3557923	0.76747878	0.18517865	-1.2981179	0.81621894	-0.12640115	-1.2723491	0.82036871	0.12099457	-1.4603658	0.90117908	0.027673501	-1.3086789	1.3029299	-0.17655373	-1.3367124	1.2892328	0.18597824	-1.3951439	1.3398962	0.00020792963	-1.2839817	0.98344482	-0.25338555	-1.4613378	0.99377343	0.22985744	-1.0737138	0.85679453	-0.2127788	-1.3583476	0.77954027	0.26962053
3	0.008	-1.570329	0.032437213	-0.074032345	-0.89112472	0.12346541	0.13320291	-1.6831612	0.08580883	-0.092970513	-1.0178735	0.083329352	0.13723951	-1.6722497	0.098818877	-0.0092174936	-1.0057906	0.11748871	0.055087668	NaN	NaN	NaN	-1.0473653	0.039072429	0.062777079	-1.4901111	0.40687403	-0.10649092	-1.1677894	0.44253191	0.15063479	-1.50197	0.40797308	0.01344002	-1.173734	0.42386164	0.017830835	-1.3800987	0.77759613	-0.16232954	-1.346704	0.76676116	0.18620008	-1.2921932	0.81496378	-0.12628468	-1.265647	0.81906104	0.1209668	-1.4534597	0.90069727	0.029574359	-1.303007	1.3017146	-0.17592408	-1.3310324	1.2878728	0.18669392	-1.3893946	1.3386697	0.00096709915	-1.2770868	0.98229151	-0.25261708	-1.4560316	0.99264618	0.230178	-1.0662656	0.85674329	-0.21161571	-1.3534695	0.77794875	0.27004412
4	0.012	-1.5703368	0.032426511	-0.07407996	-0.88411836	0.12234259	0.13185211	-1.6821092	0.087006254	-0.093394114	-1.0108831	0.082450266	0.13629657	-1.6712683	0.10001065	-0.0096663452	-0.99908935	0.11657922	0.054050863	NaN	NaN	NaN	-1.0407562	0.038160815	0.061999008	-1.485501	0.40616086	-0.10654944	-1.1603998	0.44192286	0.15039115	-1.4970105	0.40718231	0.013279735	-1.1667917	0.42349292	0.01777472	-1.37442	0.7764146	-0.16192314	-1.3390313	0.76587799	0.1868144	-1.2861618	0.81374565	-0.12613969	-1.2588462	0.81780487	0.1209257	-1.4469571	0.89980066	0.030904529	-1.2972799	1.3005501	-0.17523069	-1.3252422	1.2865511	0.18743531	-1.383635	1.3374572	0.0016660589	-1.2702415	0.98118116	-0.25177589	-1.4506337	0.99160621	0.23090173	-1.0589008	0.8566845	-0.21045936	-1.348528	0.77641201	0.27047499
5	0.016	-1.5701191	0.032413803	-0.074235682	-0.87772856	0.12082095	0.13016121	-1.6811089	0.08828654	-0.093816981	-1.0045382	0.081323728	0.1352985	-1.6713257	0.10102519	-0.009777507	-0.99301444	0.115284	0.052933448	NaN	NaN	NaN	-1.0349516	0.036984595	0.061285486	-1.4806734	0.4054237	-0.10660066	-1.1528154	0.44137862	0.15010793	-1.4918816	0.40638394	0.013111302	-1.159755	0.42325647	0.017759133	-1.3686556	0.77526229	-0.16152404	-1.3318077	0.76502568	0.18722938	-1.2800366	0.8125633	-0.12598518	-1.2519603	0.81662011	0.12087236	-1.4407172	0.89860217	0.031789286	-1.2915046	1.2994472	-0.17449133	-1.3193441	1.2852689	0.18820021	-1.377852	1.3362634	0.0023305798	-1.2634663	0.98011637	-0.2508792	-1.4449611	0.99048757	0.2321556	-1.0516329	0.85661305	-0.20931389	-1.3434922	0.77492844	0.27091665
6	0.02	-1.5698143	0.032414784	-0.074425836	-0.87194237	0.11894474	0.12815113	-1.6803094	0.089640299	-0.09416946	-0.99879303	0.079953093	0.13429437	-1.6728783	0.10175359	-0.0093505886	-0.9875822	0.11363926	0.051746067	NaN	NaN	NaN	-1.0298958	0.035542189	0.060627789	-1.4756581	0.40464834	-0.10665353	-1.1451392	0.44088453	0.14975675	-1.4866889	0.40556519	0.012973605	-1.1526474	0.42312477	0.017766853	-1.3628158	0.77413109	-0.16112276	-1.3242349	0.76437205	0.187621	-1.2738409	0.8114154	-0.12581828	-1.245022	0.81551864	0.12080975	-1.434667	0.89720971	0.03225344	-1.285694	1.2984031	-0.17372052	-1.3133563	1.2840253	0.18898447	-1.3720306	1.3350924	0.0030136548	-1.2567684	0.9791003	-0.24994165	-1.4390039	0.98923261	0.23370728	-1.0444567	0.8565301	-0.2081834	-1.3383496	0.7734966	0.27137345
7	0.024	-1.5695526	0.032430734	-0.074588218	-0.86672452	0.11674188	0.12591185	-1.6796596	0.091062317	-0.094457706	-0.99360481	0.078349779	0.13330009	-1.6749692	0.1023776	-0.0086871544	-0.98276412	0.11170249	0.050506292	NaN	NaN	NaN	-1.0255309	0.033861752	0.060002955	-1.4704979	0.40384134	-0.1067013	-1.1374311	0.4404295	0.14933211	-1.4814875	0.40470949	0.01288428	-1.1454982	0.42306257	0.017765894	-1.3569025	0.7730178	-0.16071814	-1.3163027	0.76389731	0.18801325	-1.2676221	0.81030768	-0.1256595	-1.2380411	0.8145091	0.12074988	-1.4287879	0.89570772	0.032243854	-1.2798487	1.2974077	-0.1729177	-1.3072936	1.2828229	0.18979249	-1.3661543	1.3339518	0.0037731428	-1.2501493	0.97813846	-0.24897433	-1.4329422	0.98794674	0.23506113	-1.0373589	0.85643868	-0.20707039	-1.3331056	0.77211778	0.27184728
8	0.028	-1.5693589	0.032453889	-0.074715666	-0.86205563	0.11422648	0.12354407	-1.6788935	0.092558424	-0.094767804	-0.98896176	0.076527887	0.13229311	-1.6757612	0.10328315	-0.0084220401	-0.97851912	0.10952658	0.049234951	NaN	NaN	NaN	-1.0218656	0.032022936	0.059401544	-1.4652053	0.40302483	-0.10673405	-1.1296895	0.4400168	0.14885194	-1.4761313	0.40381777	0.012819626	-1.1383378	0.42303227	0.017722825	-1.3509087	0.771922	-0.16030266	-1.3084257	0.76345864	0.18835658	-1.2614155	0.80924846	-0.125541	-1.2309795	0.8135942	0.12071479	-1.4229447	0.89422166	0.031935294	-1.2739589	1.2964529	-0.17207267	-1.3011625	1.2816654	0.19063097	-1.3602152	1.3328473	0.0046296011	-1.2436093	0.97722967	-0.24798108	-1.4269163	0.9867405	0.23595025	-1.0303304	0.85633778	-0.2059752	-1.3277733	0.77079503	0.27233643
9	0.032	-1.5692011	0.032478341	-0.074826262	-0.85793523	0.11141661	0.12113094	-1.6778158	0.09413881	-0.095164029	-0.98486161	0.074505995	0.1312478	-1.6745268	0.1046763	-0.0088510619	-0.97481411	0.10714045	0.047941999	NaN	NaN	NaN	-1.01898	0.030165336	0.05885339	-1.4597677	0.40221299	-0.10674352	-1.121898	0.43965549	0.14832779	-1.470473	0.40290435	0.012745605	-1.1312023	0.42300233	0.017629865	-1.3448229	0.77084319	-0.15985226	-1.3008489	0.76295431	0.18864337	-1.2552041	0.80824215	-0.12545516	-1.2237981	0.8127741	0.12072237	-1.4168898	0.89287836	0.031778527	-1.2680255	1.2955391	-0.17118098	-1.2949739	1.2805561	0.19150333	-1.3542189	1.3317755	0.0055568192	-1.2371486	0.9763687	-0.24695828	-1.4209298	0.98563859	0.23649239	-1.0233756	0.85622266	-0.20490141	-1.322364	0.76952804	0.27284168
10	0.036	-1.5690481	0.032503091	-0.074930556	-0.85436631	0.10832971	0.11872384	-1.6764433	0.095804767	-0.0956414	-0.98128373	0.072310497	0.1301584	-1.6722271	0.10648467	-0.0097340299	-0.97162079	0.10454988	0.046607567	NaN	NaN	NaN	-1.0169397	0.028441997	0.05839985	-1.454157	0.40138983	-0.10673486	-1.1140652	0.43934354	0.14775146	-1.4645548	0.40197481	0.01264686	-1.1241293	0.42294945	0.017509402	-1.3386355	0.76978053	-0.15933857	-1.2935519	0.76237471	0.18890758	-1.248937	0.80728389	-0.12535221	-1.2165138	0.81205447	0.12077859	-1.4104723	0.89170441	0.032127126	-1.2620684	1.2946743	-0.1702515	-1.288741	1.2794988	0.19240997	-1.3481767	1.3307242	0.0065186585	-1.2307699	0.97555373	-0.24590554	-1.4149689	0.98462303	0.23685427	-1.0165236	0.85608711	-0.20386138	-1.3168841	0.76831226	0.27336863
